<svg width="333" height="221" viewBox="0 0 333 221" fill="none" xmlns="http://www.w3.org/2000/svg">
<path d="M168.696 62.1147C165.726 57.2066 162.208 51.9662 156.698 50.3635C150.317 48.5076 143.762 52.1945 138.202 55.8328C121.574 66.7136 105.561 78.5053 90.2363 91.1539L90.2531 91.3444C102.184 90.5221 114.115 89.6998 126.046 88.8775C134.666 88.2833 143.582 87.6073 151.2 83.5317C154.09 81.9851 156.908 79.9193 160.184 79.7753C164.253 79.5965 167.802 82.4372 170.59 85.405C187.086 102.961 191.859 129.808 210.366 145.232C198.696 116.469 184.762 88.6759 168.696 62.1147Z" fill="#F2F2F2"/>
<path d="M270.09 211.02C268.266 208.718 267.52 208.178 265.721 205.855C251.07 186.916 237.299 167.338 224.409 147.12C215.653 133.389 207.331 119.394 199.444 105.136C195.689 98.3569 192.037 91.525 188.488 84.6399C185.734 79.3013 183.041 73.9308 180.41 68.5284C179.658 66.9854 178.926 65.4353 178.199 63.8816C176.485 60.228 174.802 56.5566 172.996 52.9526C170.937 48.845 168.432 44.5387 164.652 41.779C162.932 40.4715 160.875 39.6804 158.721 39.4981C155.644 39.2995 152.805 40.5694 150.136 41.9563C130.608 52.1332 112.327 64.8926 95.7915 79.4113C79.2136 93.9626 64.3958 110.402 51.64 128.395C51.2497 128.952 50.3269 128.419 50.7208 127.859C52.2718 125.667 53.8536 123.498 55.4661 121.353C75.5162 94.7019 100.101 71.783 128.096 53.6444C132.805 50.5938 137.604 47.6862 142.491 44.9218C144.954 43.5277 147.428 42.1514 149.944 40.8602C152.411 39.5939 155.03 38.4552 157.848 38.4127C167.438 38.2637 172.403 49.1181 175.814 56.4218C176.886 58.7204 177.971 61.0119 179.068 63.2963C183.217 71.9692 187.526 80.5629 191.994 89.0774C194.752 94.3344 197.57 99.5606 200.449 104.756C209.406 120.935 218.928 136.786 229.012 152.31C242.371 172.873 255.623 191.038 270.842 210.268C271.261 210.8 270.512 211.559 270.09 211.02Z" fill="#E4E4E4"/>
<path d="M94.8453 74.0519C94.2881 73.4312 93.7344 72.8104 93.1736 72.1896C88.7514 67.3016 84.0063 62.4703 77.9336 59.668C75.0381 58.2896 71.8773 57.5573 68.6703 57.5219C65.3555 57.5326 62.1152 58.4016 59.0523 59.6183C57.6042 60.1965 56.188 60.8528 54.7933 61.5515C53.1997 62.3532 51.6345 63.2081 50.0765 64.0701C47.1519 65.6876 44.2653 67.3761 41.4166 69.1355C35.7486 72.6366 30.258 76.4049 24.945 80.4404C22.1908 82.5333 19.4934 84.6947 16.8529 86.9247C14.3969 88.9963 11.9906 91.1234 9.63398 93.3061C9.13003 93.7708 8.37756 93.0188 8.88151 92.5541C9.50261 91.9759 10.1308 91.4013 10.759 90.8338C12.5336 89.2304 14.3366 87.6578 16.168 86.116C19.5076 83.2995 22.9337 80.5918 26.4463 77.9929C31.9085 73.949 37.5587 70.1795 43.3969 66.6844C46.3144 64.9391 49.272 63.2672 52.2698 61.6686C53.1749 61.1862 54.0906 60.7144 55.0169 60.2675C57.1187 59.2079 59.3026 58.3194 61.5473 57.6106C64.727 56.5825 68.0912 56.2522 71.4104 56.6422C74.6151 57.1081 77.7027 58.1757 80.5104 59.7886C86.4729 63.1194 91.0974 68.2699 95.5977 73.2964C96.0521 73.8071 95.3031 74.5627 94.8453 74.0519Z" fill="#E4E4E4"/>
<path d="M217.012 124.704L231.3 119.481L238.394 116.888C240.704 116.043 243.009 115.082 245.397 114.477C247.473 113.885 249.677 113.913 251.736 114.558C253.573 115.237 255.255 116.279 256.681 117.621C258.138 118.962 259.493 120.409 260.736 121.95C262.281 123.805 263.802 125.679 265.331 127.548C271.639 135.258 277.906 143.002 284.132 150.78C290.358 158.557 296.542 166.368 302.684 174.212C308.842 182.074 314.957 189.97 321.03 197.898C321.774 198.87 322.517 199.841 323.26 200.814C323.67 201.351 324.595 200.821 324.179 200.277C318.061 192.268 311.901 184.293 305.698 176.35C299.48 168.389 293.219 160.461 286.915 152.567C280.611 144.673 274.265 136.813 267.875 128.987C266.284 127.038 264.689 125.09 263.092 123.145C261.745 121.504 260.413 119.846 258.936 118.318C256.224 115.515 252.835 113.037 248.779 112.97C246.394 112.931 244.086 113.687 241.871 114.488C239.482 115.352 237.099 116.232 234.714 117.104L220.326 122.363L216.729 123.678C216.091 123.911 216.367 124.94 217.012 124.704L217.012 124.704Z" fill="#E4E4E4"/>
<path d="M76.0533 65.8198C68.7926 62.0902 59.4943 62.8207 52.8223 67.4803C65.5487 69.6747 78.1359 72.6109 90.5194 76.2738C85.3771 73.2619 81.3545 68.5429 76.0533 65.8198Z" fill="#F2F2F2"/>
<path d="M52.7518 67.4668L51.3535 68.6023C51.8265 68.2049 52.3182 67.8323 52.8233 67.4796C52.7995 67.4755 52.7757 67.4709 52.7518 67.4668Z" fill="#F2F2F2"/>
<path d="M256.145 124.757C254.739 123.046 253.218 121.255 251.114 120.56L249.15 120.637C264.101 147.041 284.294 170.113 308.488 188.437C291.04 167.21 273.593 145.984 256.145 124.757Z" fill="#F2F2F2"/>
<path d="M134.012 110.643C134.921 113.943 136.968 116.816 139.793 118.752C140.884 119.495 142.176 120.208 142.55 121.474C142.746 122.282 142.625 123.133 142.211 123.854C141.799 124.565 141.296 125.221 140.717 125.805L140.664 126.003C137.954 124.398 135.376 122.368 133.88 119.598C132.383 116.829 132.174 113.199 134.012 110.643" fill="#F2F2F2"/>
<path d="M224.219 189.19C225.128 192.491 227.175 195.363 230 197.3C231.091 198.043 232.383 198.756 232.757 200.022C232.953 200.829 232.832 201.681 232.418 202.402C232.006 203.113 231.503 203.769 230.924 204.353L230.871 204.551C228.161 202.946 225.584 200.916 224.087 198.146C222.59 195.377 222.381 191.747 224.219 189.19" fill="#F2F2F2"/>
<path d="M44.1935 183.773C45.1024 187.074 47.1501 189.946 49.9741 191.883C51.066 192.626 52.3578 193.339 52.7313 194.605C52.9277 195.412 52.8067 196.264 52.393 196.985C51.9802 197.696 51.4778 198.352 50.8982 198.936L50.8452 199.134C48.1358 197.529 45.5581 195.499 44.0615 192.729C42.5648 189.96 42.3559 186.33 44.1935 183.773" fill="#F2F2F2"/>
<path d="M251.356 39.4679C262.261 39.4679 271.101 30.6327 271.101 19.734C271.101 8.8352 262.261 0 251.356 0C240.451 0 231.611 8.8352 231.611 19.734C231.611 30.6327 240.451 39.4679 251.356 39.4679Z" fill="#6C63FF"/>
<path d="M286.989 4.59281C277.42 3.30007 266.495 8.46945 264.015 17.7966C263.39 16.1382 262.254 14.7214 260.77 13.7508C259.287 12.7801 257.533 12.306 255.762 12.3968C253.991 12.4876 252.295 13.1387 250.919 14.256C249.543 15.3733 248.557 16.8989 248.105 18.6125L249.201 19.3967C269.707 23.8289 290.935 23.7329 311.4 19.1157C304.744 12.1241 296.558 5.88554 286.989 4.59281Z" fill="#F0F0F0"/>
<path d="M245.95 30.9053C236.381 29.6126 225.456 34.782 222.976 44.1091C222.351 42.4507 221.214 41.0339 219.731 40.0633C218.247 39.0926 216.494 38.6185 214.723 38.7093C212.952 38.8001 211.256 39.4512 209.88 40.5685C208.504 41.6858 207.518 43.2114 207.066 44.925L208.162 45.7092C228.668 50.1414 249.896 50.0454 270.361 45.4282C263.705 38.4366 255.519 32.198 245.95 30.9053Z" fill="#F0F0F0"/>
<path d="M329.469 35.8809C329.429 35.881 329.39 35.8748 329.352 35.8627C226.987 3.50748 136.766 7.73851 79.1052 16.9854C71.2582 18.2433 63.3902 19.6963 55.7198 21.3041C53.7615 21.7141 51.7299 22.1536 49.6815 22.6112C47.2352 23.1557 44.8213 23.7164 42.5067 24.2772C41.5071 24.5138 40.527 24.7522 39.5664 24.9925C38.1114 25.3515 36.635 25.7256 35.0524 26.1367C33.2839 26.5924 31.4871 27.0704 29.7107 27.5575C29.7042 27.5598 29.6976 27.5617 29.6908 27.5632L29.691 27.5635C27.6846 28.1111 25.6887 28.6745 23.7586 29.2371C22.714 29.5387 21.7053 29.8361 20.7391 30.1297C20.6311 30.1595 20.5355 30.1882 20.4385 30.2177L20.2309 30.2808C20.1107 30.3175 19.992 30.3534 19.8733 30.3874L19.8657 30.3896L19.8659 30.39L19.5517 30.4875C19.177 30.6009 18.8114 30.7116 18.4519 30.822C8.94929 33.7497 3.72539 35.8325 3.67378 35.8529C3.62659 35.8719 3.57613 35.8813 3.5253 35.8807C3.47446 35.8801 3.42423 35.8695 3.37748 35.8495C3.33074 35.8296 3.28839 35.8006 3.25285 35.7642C3.21731 35.7279 3.18929 35.6849 3.17037 35.6377C3.15145 35.5906 3.14202 35.5401 3.1426 35.4893C3.14319 35.4385 3.15378 35.3883 3.17377 35.3416C3.19377 35.2949 3.22277 35.2526 3.25913 35.217C3.29549 35.1815 3.33849 35.1535 3.38568 35.1346C3.43767 35.1142 8.6871 33.0208 18.2243 30.0821C18.5852 29.9714 18.9517 29.8607 19.3275 29.7469L19.6194 29.6562C19.6294 29.6525 19.6394 29.6494 19.6496 29.6464C19.7678 29.6128 19.8858 29.5769 20.0056 29.5406L20.2135 29.4775C20.3171 29.4461 20.4192 29.4151 20.5238 29.3864C21.4833 29.0947 22.4954 28.7966 23.5427 28.4939C25.4736 27.9309 27.4713 27.3675 29.4793 26.8192C29.4855 26.8169 29.492 26.8154 29.4982 26.8135V26.8131C31.2808 26.3245 33.0843 25.8446 34.8584 25.3874C36.4435 24.9759 37.9227 24.6011 39.3802 24.2413C40.3449 24.0014 41.3269 23.7624 42.3262 23.5245C44.6434 22.963 47.0622 22.4015 49.5129 21.8558C51.5645 21.3978 53.5995 20.9572 55.561 20.5469C63.2433 18.9364 71.1236 17.4812 78.9825 16.2214C136.726 6.96124 227.076 2.72339 329.586 35.1251C329.674 35.1529 329.749 35.2114 329.798 35.2898C329.847 35.3683 329.866 35.4616 329.852 35.5529C329.838 35.6442 329.791 35.7275 329.721 35.7876C329.651 35.8478 329.562 35.8809 329.469 35.8809Z" fill="#CCCCCC"/>
<path d="M101.816 162.453C101.682 162.061 101.456 161.707 101.158 161.42C101.047 161.317 100.928 161.225 100.801 161.145C99.791 160.472 98.2811 160.321 97.3209 161.145C97.2242 161.229 97.1349 161.321 97.0538 161.42C96.7673 161.772 96.4731 162.116 96.1711 162.453C95.6755 163.018 95.1684 163.563 94.638 164.093C94.487 164.24 94.336 164.391 94.1811 164.538C94.0921 164.627 94.0031 164.712 93.914 164.798C93.5733 165.123 93.2249 165.436 92.8726 165.746C92.6867 165.912 92.5009 166.074 92.3112 166.233C92.0286 166.469 91.746 166.705 91.4595 166.933C91.4324 166.953 91.4053 166.972 91.3782 166.995C91.3704 166.999 91.3666 167.007 91.3588 167.011C91.3549 167.011 91.3511 167.011 91.3472 167.019C91.3367 167.023 91.3274 167.029 91.3201 167.038C91.2349 167.096 91.1768 167.135 91.1343 167.169C91.1497 167.162 91.1652 167.15 91.1807 167.142C91.111 167.197 91.0375 167.251 90.9678 167.305C90.2903 167.804 89.5973 168.284 88.8888 168.733C87.1359 169.854 85.2947 170.831 83.3835 171.654C83.2557 171.704 83.1241 171.759 82.9925 171.809C77.9884 173.858 72.5601 174.657 67.1773 174.138C66.6275 174.096 66.0778 174.038 65.528 173.964C64.8931 173.871 64.2621 173.759 63.6349 173.631C61.2472 173.155 58.9109 172.45 56.6584 171.526C53.8408 170.237 51.1609 168.666 48.6598 166.837C48.2727 166.562 47.8817 166.287 47.4906 166.02C47.9359 164.929 48.3734 163.838 48.7992 162.739C49.0122 162.209 49.2173 161.679 49.4187 161.145C51.0021 157.032 52.4888 152.88 53.9135 148.712C55.3537 144.491 56.7126 140.245 57.9902 135.974C58.1218 135.541 58.2496 135.108 58.3735 134.674C59.0433 132.418 59.6859 130.157 60.3015 127.891C60.3596 127.671 60.4215 127.454 60.4757 127.233C60.6538 126.583 60.828 125.933 60.9984 125.283C61.3855 123.817 60.5106 122.064 58.9697 121.712C58.2278 121.522 57.4411 121.627 56.7752 122.005C56.1093 122.383 55.6164 123.005 55.4002 123.739C55.2337 124.366 55.0672 124.989 54.8969 125.616C54.08 128.646 53.2205 131.665 52.3184 134.674C52.1868 135.108 52.0552 135.541 51.9235 135.974C49.9336 142.529 47.7487 149.018 45.369 155.441C45.0826 156.219 44.7922 156.994 44.498 157.767C44.3547 158.146 44.2115 158.525 44.0643 158.904C43.7817 159.651 43.4914 160.398 43.201 161.145C43.0345 161.582 42.8642 162.019 42.6938 162.453C42.5816 162.727 42.4732 163.002 42.3648 163.273C41.2609 162.877 40.1173 162.602 38.954 162.453L38.7681 162.429C37.8662 162.321 36.9541 162.329 36.0542 162.453C34.7073 162.61 33.4114 163.061 32.2581 163.773C31.1047 164.486 30.1221 165.443 29.3797 166.577C27.533 169.483 27.5562 173.639 30.1462 176.108C32.8137 178.65 36.8517 178.631 39.9915 177.04C41.6554 176.141 43.0584 174.826 44.0643 173.225C44.4497 172.645 44.8039 172.044 45.1252 171.426C45.2065 171.48 45.2877 171.534 45.369 171.592C45.6788 171.809 45.9885 172.029 46.2943 172.246C48.0764 173.536 49.9544 174.689 51.9119 175.694C56.121 177.785 60.6518 179.155 65.3151 179.745C65.4196 179.757 65.5203 179.772 65.6248 179.784C66.1397 179.85 66.6585 179.9 67.1773 179.942C74.6192 180.503 82.0702 178.981 88.6952 175.547C89.2566 175.257 89.8128 174.952 90.3638 174.634C91.2194 174.138 92.0557 173.612 92.8726 173.055C93.3178 172.753 93.7514 172.447 94.1811 172.126C96.0591 170.744 97.8095 169.196 99.4116 167.502C100.019 166.864 100.601 166.205 101.158 165.525C101.684 164.969 101.987 164.239 102.009 163.474C102.006 163.125 101.941 162.779 101.816 162.453ZM37.7073 171.67C37.7886 171.612 37.8699 171.55 37.9474 171.488C37.9241 171.546 37.8119 171.612 37.7073 171.67H37.7073ZM38.9501 170.42C38.861 170.52 38.7797 170.621 38.6907 170.722C38.4198 171.025 38.1288 171.309 37.8196 171.573C37.777 171.612 37.7306 171.65 37.6841 171.685C37.6836 171.685 37.6831 171.685 37.6826 171.685C37.6821 171.686 37.6817 171.686 37.6813 171.686C37.681 171.687 37.6807 171.687 37.6805 171.687C37.6803 171.688 37.6802 171.688 37.6802 171.689C37.6243 171.714 37.57 171.742 37.5176 171.774C37.3511 171.875 37.1808 171.968 37.0066 172.053C36.6655 172.178 36.3145 172.275 35.9574 172.343C35.683 172.363 35.4075 172.365 35.1328 172.351H35.125C34.9354 172.309 34.748 172.257 34.5637 172.196C34.4707 172.149 34.3817 172.095 34.2926 172.041C34.2578 172.01 34.2268 171.979 34.2075 171.96C34.1696 171.925 34.1347 171.888 34.103 171.848C34.103 171.847 34.1029 171.847 34.1027 171.846C34.1025 171.846 34.1022 171.845 34.1019 171.845C34.1015 171.844 34.1011 171.844 34.1006 171.844C34.1001 171.844 34.0996 171.844 34.0991 171.844C34.0565 171.766 34.01 171.689 33.9675 171.612C33.9653 171.61 33.9639 171.607 33.9636 171.604C33.9326 171.507 33.9055 171.406 33.8823 171.306C33.8739 171.129 33.8752 170.952 33.8861 170.776C33.9381 170.529 34.008 170.285 34.0952 170.048C34.1736 169.88 34.2628 169.717 34.3623 169.561C34.3701 169.545 34.4088 169.483 34.4514 169.414C34.4553 169.41 34.4553 169.41 34.4553 169.406C34.5133 169.34 34.5714 169.271 34.6334 169.209C34.7379 169.093 34.8502 168.992 34.9624 168.888C35.1808 168.745 35.407 168.614 35.64 168.497C36.0095 168.365 36.3888 168.263 36.7743 168.191C37.3428 168.146 37.9141 168.151 38.4817 168.206C39.0192 168.3 39.5496 168.43 40.069 168.597C39.7542 169.208 39.3958 169.795 38.9966 170.354C38.9811 170.377 38.9656 170.4 38.9501 170.42ZM34.645 169.147C34.6108 169.201 34.5706 169.252 34.5249 169.298C34.5557 169.241 34.5963 169.19 34.645 169.147Z" fill="#3F3D56"/>
<path d="M90.1778 122.935C90.143 124.15 90.1082 125.365 90.0733 126.58C89.9997 129.277 89.9236 131.975 89.8449 134.675C89.7636 137.713 89.6784 140.749 89.5894 143.784C89.5468 145.351 89.5029 146.918 89.4577 148.485C89.3377 152.706 89.219 156.927 89.1016 161.146C89.0899 161.583 89.0745 162.016 89.0628 162.454C89.0048 164.547 88.9467 166.64 88.8886 168.734C88.8228 171.005 88.7583 173.276 88.695 175.548C88.6486 177.25 88.6008 178.954 88.5518 180.659C88.2034 193.014 87.8549 205.369 87.5065 217.724C87.4918 218.489 87.1811 219.219 86.6398 219.76C86.0984 220.301 85.3683 220.611 84.6029 220.626C83.8347 220.62 83.0997 220.312 82.5565 219.769C82.0133 219.226 81.7054 218.492 81.6992 217.724C81.8928 210.775 82.0889 203.825 82.2877 196.876C82.4619 190.592 82.6387 184.308 82.8181 178.024C82.8762 175.954 82.9342 173.882 82.9923 171.81C83.0813 168.691 83.1691 165.572 83.2556 162.454C83.2672 162.016 83.2827 161.583 83.2943 161.146C83.302 160.763 83.3136 160.383 83.3252 160C83.4956 153.945 83.6659 147.888 83.8363 141.83C83.906 139.446 83.9731 137.061 84.0376 134.675C84.115 131.955 84.1925 129.236 84.2699 126.518C84.3047 125.323 84.3357 124.131 84.3706 122.935C84.3853 122.17 84.6959 121.441 85.2373 120.899C85.7787 120.358 86.5087 120.048 87.2742 120.033C88.0424 120.039 88.7773 120.347 89.3205 120.89C89.8637 121.433 90.1716 122.167 90.1778 122.935Z" fill="#3F3D56"/>
<path d="M249.463 123.74C246.418 135.263 242.779 146.621 238.56 157.768C237.396 160.843 236.205 163.912 234.932 166.943L235.224 166.25C234.656 167.694 233.93 169.071 233.06 170.356C233.001 170.439 232.941 170.521 232.88 170.603C233.18 170.218 233.238 170.142 233.051 170.375C232.953 170.491 232.856 170.608 232.754 170.721C232.483 171.024 232.192 171.309 231.883 171.574C231.805 171.64 231.726 171.705 231.646 171.769L232.009 171.487C231.967 171.586 231.672 171.718 231.579 171.774C231.281 171.954 230.97 172.112 230.648 172.246L231.342 171.953C230.815 172.165 230.265 172.316 229.704 172.402L230.476 172.299C229.924 172.375 229.365 172.381 228.812 172.316L229.584 172.42C229.131 172.358 228.688 172.238 228.266 172.065L228.959 172.358C228.734 172.259 228.516 172.144 228.309 172.011C228.204 171.943 227.881 171.698 228.303 172.02C228.742 172.356 228.36 172.049 228.27 171.96C228.194 171.886 228.126 171.805 228.053 171.73C227.711 171.38 228.439 172.332 228.206 171.923C228.082 171.718 227.969 171.506 227.866 171.29L228.159 171.983C228.026 171.653 227.931 171.309 227.877 170.957L227.981 171.728C227.926 171.291 227.925 170.848 227.98 170.411L227.876 171.182C227.947 170.694 228.076 170.216 228.261 169.758L227.969 170.452C228.097 170.144 228.25 169.846 228.425 169.562C228.505 169.415 228.6 169.276 228.707 169.148C228.726 169.154 228.216 169.733 228.486 169.441C228.557 169.364 228.623 169.283 228.695 169.208C228.81 169.086 228.932 168.975 229.053 168.86C229.458 168.475 228.487 169.234 228.954 168.929C229.292 168.707 229.648 168.513 230.018 168.349L229.325 168.642C229.945 168.387 230.594 168.213 231.259 168.123L230.487 168.227C231.318 168.131 232.159 168.141 232.988 168.257L232.216 168.153C233.266 168.312 234.292 168.601 235.271 169.012L234.578 168.719C236.664 169.615 238.512 170.944 240.357 172.248C242.139 173.537 244.016 174.689 245.973 175.694C250.183 177.786 254.714 179.156 259.377 179.747C266.066 180.565 272.852 179.692 279.115 177.208C285.378 174.723 290.916 170.706 295.222 165.526C295.747 164.969 296.05 164.239 296.072 163.474C296.067 162.705 295.762 161.969 295.222 161.422C294.157 160.444 292.144 160.168 291.116 161.422C290.141 162.611 289.092 163.739 287.977 164.798C287.456 165.292 286.922 165.771 286.373 166.234C286.06 166.499 285.743 166.758 285.421 167.012C285.268 167.132 284.794 167.453 285.523 166.936C285.356 167.054 285.195 167.184 285.031 167.305C282.592 169.102 279.95 170.604 277.159 171.78L277.853 171.488C274.858 172.743 271.712 173.605 268.495 174.05L269.267 173.946C265.957 174.381 262.604 174.377 259.296 173.932L260.068 174.035C256.76 173.581 253.526 172.701 250.444 171.416L251.138 171.708C248.165 170.393 245.343 168.76 242.723 166.836C241.359 165.827 239.921 164.922 238.42 164.13C236.672 163.238 234.78 162.663 232.831 162.432C229.177 162.002 225.453 163.424 223.444 166.58C221.595 169.484 221.619 173.639 224.208 176.108C226.875 178.652 230.913 178.63 234.055 177.039C237.082 175.507 238.9 172.324 240.178 169.323C243.055 162.569 245.602 155.659 247.975 148.713C250.323 141.842 252.452 134.901 254.363 127.891C254.599 127.022 254.833 126.153 255.062 125.283C255.45 123.817 254.574 122.064 253.034 121.713C252.292 121.522 251.505 121.627 250.838 122.005C250.172 122.383 249.679 123.005 249.463 123.74Z" fill="#3F3D56"/>
<path d="M278.436 122.935L277.391 160.001L276.352 196.875L275.764 217.724C275.77 218.492 276.078 219.226 276.621 219.769C277.164 220.312 277.899 220.62 278.667 220.627C279.433 220.612 280.163 220.301 280.704 219.76C281.245 219.219 281.556 218.49 281.571 217.724L282.616 180.658L283.656 143.785L284.244 122.935C284.237 122.168 283.929 121.433 283.386 120.89C282.843 120.348 282.108 120.04 281.34 120.033C280.575 120.048 279.845 120.358 279.303 120.9C278.762 121.441 278.451 122.17 278.436 122.935Z" fill="#3F3D56"/>
<path opacity="0.2" d="M177.932 207.375H178.833V166.343H199.867V165.445H178.833V148.131H195.077C194.839 147.828 194.593 147.53 194.341 147.235H178.833V135.799C178.535 135.672 178.235 135.55 177.932 135.434V147.235H160.258V132.583C159.955 132.597 159.656 132.618 159.356 132.643V147.235H145.256V136.303C144.953 136.437 144.655 136.578 144.359 136.726V147.235H132.506V148.131H144.359V165.445H132.506V166.343H144.359V207.375H145.256V166.343C147.108 166.343 148.941 166.707 150.652 167.415C152.363 168.123 153.918 169.161 155.227 170.47C156.536 171.779 157.575 173.332 158.283 175.042C158.992 176.752 159.356 178.585 159.356 180.436V207.375H160.258V166.343H177.932V207.375ZM145.256 165.445V148.131H159.356V165.445H145.256ZM160.258 165.445V148.131H160.611C162.886 148.131 165.138 148.579 167.24 149.449C169.341 150.32 171.251 151.595 172.859 153.203C174.468 154.81 175.743 156.719 176.614 158.819C177.484 160.92 177.932 163.171 177.932 165.445H160.258Z" fill="black"/>
<path d="M172.427 195.072C171.291 200.133 168.572 204.7 164.664 208.112C164.378 208.36 164.091 208.6 163.793 208.836C163.069 208.901 162.35 208.968 161.637 209.037C161.044 209.091 160.46 209.149 159.879 209.203L159.774 209.215L159.701 208.58L159.407 206.011C158.265 204.148 157.558 202.053 157.337 199.88C157.115 197.707 157.386 195.513 158.129 193.459C159.151 190.704 161.002 188.27 162.821 185.855C165.334 182.52 167.777 179.223 167.866 175.156C169.102 176.738 170.13 178.471 170.924 180.314C170.175 180.667 169.502 181.162 168.942 181.773C168.783 181.947 168.625 182.191 168.733 182.4C168.826 182.578 169.058 182.62 169.26 182.644C169.744 182.694 170.231 182.744 170.715 182.794C171.102 182.837 171.49 182.876 171.877 182.918C172.345 184.455 172.663 186.033 172.825 187.631C173.086 190.117 172.952 192.628 172.427 195.072Z" fill="#3F3D56"/>
<path d="M185.279 184.93C182.995 186.59 181.659 188.978 180.621 191.609C179.558 191.949 178.601 192.56 177.846 193.381C177.687 193.555 177.528 193.799 177.637 194.008C177.729 194.186 177.962 194.229 178.163 194.252C178.647 194.302 179.135 194.352 179.619 194.403C178.581 197.514 177.629 200.733 175.794 203.36C174.573 205.095 172.982 206.537 171.136 207.582C170.633 207.869 170.113 208.126 169.58 208.352C167.613 208.503 165.684 208.664 163.792 208.836C163.068 208.901 162.349 208.968 161.636 209.037C161.043 209.091 160.459 209.149 159.878 209.203C159.874 208.99 159.874 208.778 159.878 208.565C160 202.896 162.087 197.444 165.782 193.141C165.956 192.94 166.134 192.743 166.316 192.545C168.188 190.547 170.389 188.885 172.824 187.631C176.661 185.638 180.961 184.705 185.279 184.93Z" fill="#6C63FF"/>
<path d="M162.305 207.051L161.86 208.367L161.635 209.036C161.043 209.091 160.458 209.149 159.878 209.203L159.773 209.214C159.13 209.28 158.492 209.346 157.853 209.412C157.686 209.218 157.52 209.021 157.357 208.82C153.316 203.929 151.376 197.638 151.962 191.322C152.547 185.006 155.61 179.179 160.482 175.113C159.97 177.787 160.567 180.349 161.546 182.891C161.442 182.933 161.341 182.976 161.244 183.022C160.495 183.375 159.821 183.87 159.262 184.481C159.103 184.655 158.945 184.899 159.053 185.108C159.146 185.286 159.378 185.328 159.579 185.352C160.063 185.402 160.551 185.452 161.035 185.503C161.422 185.545 161.809 185.584 162.197 185.626C162.379 185.646 162.561 185.665 162.742 185.684C162.77 185.743 162.793 185.797 162.82 185.855C163.923 188.246 165.112 190.649 165.782 193.141C165.95 193.766 166.081 194.4 166.177 195.041C166.475 197.205 166.281 199.408 165.611 201.487C164.941 203.567 163.811 205.468 162.305 207.051Z" fill="#6C63FF"/>
<path d="M201.274 150.931C197.941 144.433 192.777 138.966 186.704 134.949C180.612 130.937 173.621 128.493 166.355 127.837C165.402 127.75 164.447 127.699 163.49 127.685C162.359 127.668 145.346 132.572 139.647 136.577C133.951 140.533 129.265 145.773 125.967 151.872C122.676 158.005 121.057 164.895 121.273 171.851C121.555 178.849 123.507 185.678 126.965 191.769C130.376 197.84 135.22 202.987 141.075 206.761C147.013 210.548 152.978 220.589 159.989 220.943C167.053 221.301 175.109 211.829 181.551 208.953C187.994 206.054 193.564 201.517 197.705 195.795C201.73 190.188 204.334 183.689 205.293 176.855C206.289 169.858 205.825 162.642 203.434 155.954C202.821 154.236 202.099 152.558 201.274 150.931C200.585 149.574 198.565 149.075 197.301 149.889C196.65 150.29 196.178 150.927 195.984 151.666C195.79 152.406 195.889 153.191 196.259 153.86C196.664 154.657 197.04 155.466 197.388 156.289L197.095 155.596C198.412 158.759 199.307 162.081 199.758 165.478L199.654 164.706C200.134 168.391 200.125 172.122 199.628 175.805L199.732 175.033C199.23 178.715 198.247 182.315 196.807 185.741L197.1 185.048C196.359 186.796 195.496 188.49 194.517 190.116C194.021 190.938 193.494 191.741 192.937 192.524C192.693 192.867 192.441 193.205 192.187 193.542C191.855 193.981 192.638 192.968 192.296 193.399C192.238 193.472 192.18 193.546 192.121 193.619C191.945 193.839 191.767 194.057 191.586 194.272C190.379 195.712 189.062 197.055 187.646 198.29C187.294 198.598 186.935 198.898 186.571 199.192C186.389 199.338 186.21 199.491 186.021 199.627C186.028 199.622 186.632 199.163 186.274 199.43C186.162 199.513 186.05 199.598 185.938 199.682C185.187 200.238 184.416 200.766 183.625 201.265C181.804 202.412 179.893 203.41 177.912 204.25L178.606 203.957C175.188 205.395 171.596 206.378 167.922 206.879L168.694 206.775C165.021 207.271 161.299 207.278 157.625 206.795L158.397 206.899C155.058 206.451 151.792 205.568 148.681 204.273L149.375 204.566C147.574 203.806 145.837 202.901 144.181 201.861C143.362 201.345 142.564 200.797 141.787 200.217C141.676 200.135 141.566 200.051 141.456 199.968C141.102 199.7 141.711 200.165 141.715 200.168C141.509 200.02 141.311 199.862 141.121 199.694C140.746 199.389 140.377 199.077 140.013 198.757C138.559 197.477 137.202 196.092 135.951 194.613C135.638 194.243 135.331 193.868 135.032 193.487C134.902 193.322 134.665 192.988 135.188 193.692C135.12 193.599 135.048 193.508 134.979 193.416C134.812 193.195 134.647 192.972 134.485 192.747C133.916 191.961 133.376 191.156 132.863 190.331C131.706 188.463 130.695 186.509 129.842 184.485L130.134 185.178C128.737 181.855 127.782 178.364 127.292 174.794L127.396 175.565C126.955 172.274 126.948 168.939 127.377 165.645L127.274 166.417C127.713 163.228 128.572 160.111 129.827 157.146L129.534 157.839C130.324 155.983 131.255 154.191 132.32 152.478C132.853 151.621 133.418 150.784 134.015 149.969C134.15 149.783 134.287 149.599 134.426 149.416C134.551 149.251 134.896 148.838 134.308 149.566C134.365 149.495 134.421 149.422 134.478 149.35C134.805 148.935 135.141 148.527 135.484 148.125C136.784 146.604 138.192 145.179 139.698 143.861C140.078 143.527 140.465 143.201 140.857 142.882C141.035 142.737 141.215 142.593 141.396 142.451C141.468 142.395 141.541 142.339 141.613 142.282C140.84 142.897 141.398 142.449 141.574 142.318C142.383 141.712 143.213 141.136 144.065 140.591C145.959 139.381 147.952 138.331 150.022 137.454L149.328 137.747C152.333 136.486 165.643 133.51 168.064 133.835L167.292 133.731C170.851 134.228 174.328 135.188 177.637 136.588L176.943 136.295C178.62 137.007 180.249 137.825 181.822 138.744C182.607 139.204 183.377 139.69 184.132 140.2C184.489 140.442 184.842 140.689 185.192 140.941C185.367 141.067 185.54 141.195 185.713 141.324C185.809 141.395 185.904 141.468 186 141.54C186.402 141.841 185.446 141.103 185.868 141.436C187.279 142.545 188.62 143.741 189.882 145.017C190.501 145.648 191.1 146.298 191.677 146.969C191.973 147.313 192.263 147.662 192.546 148.017C192.688 148.193 193.168 148.83 192.579 148.049C192.723 148.24 192.869 148.43 193.011 148.622C194.234 150.277 195.321 152.029 196.259 153.86C196.954 155.213 198.964 155.718 200.232 154.901C200.884 154.501 201.356 153.864 201.55 153.125C201.744 152.385 201.645 151.599 201.274 150.931Z" fill="#3F3D56"/>
<path d="M167.443 198.29C167.143 198.303 166.846 198.225 166.593 198.064C166.339 197.904 166.141 197.67 166.025 197.393C165.91 197.116 165.882 196.811 165.945 196.518C166.009 196.225 166.162 195.958 166.382 195.755C166.419 195.608 166.445 195.503 166.482 195.356C166.469 195.324 166.456 195.293 166.442 195.261C165.095 192.05 156.498 201 156.127 204.018C155.963 205.352 156.032 206.704 156.331 208.014C153.546 201.943 152.1 195.344 152.091 188.666C152.09 186.99 152.183 185.315 152.37 183.65C152.524 182.284 152.738 180.929 153.011 179.583C154.504 172.28 157.708 165.435 162.362 159.61C165.023 159.759 167.355 159.354 167.58 154.199C167.62 153.282 168.301 152.488 168.451 151.585C168.197 151.618 167.939 151.639 167.685 151.655C167.605 151.66 167.522 151.664 167.443 151.668L167.413 151.669C167.134 151.682 166.857 151.613 166.616 151.472C166.375 151.331 166.179 151.123 166.053 150.874C165.928 150.624 165.877 150.344 165.907 150.066C165.937 149.789 166.046 149.525 166.222 149.308C166.332 149.174 166.442 149.039 166.552 148.904C166.718 148.696 166.889 148.492 167.056 148.284C167.075 148.264 167.093 148.243 167.11 148.221C167.301 147.984 167.493 147.751 167.685 147.514C167.335 146.971 166.864 146.517 166.31 146.186C164.39 145.062 161.741 145.84 160.354 147.576C158.963 149.312 158.701 151.747 159.184 153.916C159.659 155.761 160.445 157.512 161.508 159.094C161.404 159.227 161.295 159.356 161.191 159.49C159.288 161.936 157.629 164.563 156.238 167.332C156.632 164.26 151.82 153.167 149.96 150.817C147.725 147.995 143.141 149.227 142.748 152.804C142.744 152.839 142.74 152.874 142.736 152.908C143.013 153.064 143.283 153.23 143.548 153.405C143.881 153.627 144.138 153.944 144.287 154.315C144.436 154.686 144.47 155.093 144.383 155.483C144.297 155.874 144.094 156.229 143.803 156.502C143.511 156.775 143.143 156.954 142.748 157.015L142.707 157.021C139.008 162.3 150.867 176.041 153.836 172.956C152.439 176.913 151.562 181.036 151.229 185.219C151.04 187.687 151.051 190.167 151.262 192.633L151.25 192.545C150.59 187.174 139.274 179.187 135.97 179.852C134.067 180.236 132.192 180.149 132.481 182.068C132.485 182.098 132.49 182.129 132.495 182.16C133.008 182.368 133.507 182.609 133.99 182.88C134.266 183.036 134.537 183.201 134.802 183.376C135.134 183.598 135.392 183.915 135.541 184.286C135.69 184.657 135.723 185.064 135.637 185.455C135.55 185.845 135.348 186.2 135.056 186.473C134.764 186.746 134.397 186.925 134.001 186.986L133.961 186.992C133.932 186.997 133.907 187.001 133.878 187.005C132.194 192.796 144.682 202.142 152.274 199.168H152.278C153.031 202.436 154.121 205.617 155.531 208.659H167.151C167.193 208.53 167.23 208.397 167.268 208.268C166.192 208.335 165.113 208.271 164.053 208.076C164.915 207.019 165.777 205.953 166.639 204.896C166.658 204.876 166.676 204.855 166.693 204.834C167.131 204.293 167.572 203.756 168.009 203.214L168.01 203.214C168.033 201.555 167.842 199.9 167.443 198.29L167.443 198.29ZM154.136 172.127L154.142 172.119L154.136 172.136V172.127ZM151.562 195.318L151.462 195.093C151.466 194.931 151.466 194.768 151.462 194.602C151.462 194.556 151.454 194.51 151.454 194.464C151.491 194.752 151.524 195.039 151.566 195.326L151.562 195.318Z" fill="#3F3D56"/>
<path d="M36.8759 174.123C39.2279 174.123 41.1345 172.217 41.1345 169.867C41.1345 167.516 39.2279 165.61 36.8759 165.61C34.5239 165.61 32.6172 167.516 32.6172 169.867C32.6172 172.217 34.5239 174.123 36.8759 174.123Z" fill="#3F3D56"/>
<path d="M87.9794 220.556C90.3314 220.556 92.238 218.65 92.238 216.299C92.238 213.949 90.3314 212.043 87.9794 212.043C85.6274 212.043 83.7207 213.949 83.7207 216.299C83.7207 218.65 85.6274 220.556 87.9794 220.556Z" fill="#3F3D56"/>
<path d="M281.942 220.556C284.294 220.556 286.201 218.65 286.201 216.299C286.201 213.949 284.294 212.043 281.942 212.043C279.59 212.043 277.684 213.949 277.684 216.299C277.684 218.65 279.59 220.556 281.942 220.556Z" fill="#3F3D56"/>
<path d="M292.395 166.385C294.747 166.385 296.654 164.479 296.654 162.128C296.654 159.778 294.747 157.872 292.395 157.872C290.043 157.872 288.137 159.778 288.137 162.128C288.137 164.479 290.043 166.385 292.395 166.385Z" fill="#3F3D56"/>
<path d="M280.007 126.916C282.359 126.916 284.265 125.01 284.265 122.66C284.265 120.309 282.359 118.403 280.007 118.403C277.655 118.403 275.748 120.309 275.748 122.66C275.748 125.01 277.655 126.916 280.007 126.916Z" fill="#3F3D56"/>
<path d="M102.306 162.128C102.303 163.216 101.883 164.26 101.131 165.046C100.379 165.832 99.354 166.299 98.2674 166.35C97.1808 166.402 96.116 166.034 95.2934 165.322C94.4708 164.611 93.9533 163.611 93.848 162.528C93.7428 161.446 94.0578 160.365 94.7279 159.509C95.398 158.652 96.3719 158.086 97.4481 157.927C98.5242 157.769 99.6203 158.029 100.509 158.656C101.398 159.282 102.013 160.226 102.225 161.293C102.279 161.568 102.307 161.848 102.306 162.128Z" fill="#3F3D56"/>
<path d="M187.477 139.298C189.829 139.298 191.736 137.392 191.736 135.042C191.736 132.691 189.829 130.785 187.477 130.785C185.125 130.785 183.219 132.691 183.219 135.042C183.219 137.392 185.125 139.298 187.477 139.298Z" fill="#3F3D56"/>
<path d="M145.279 135.042C145.276 136.129 144.855 137.173 144.104 137.959C143.352 138.745 142.327 139.212 141.24 139.263C140.153 139.315 139.089 138.947 138.266 138.235C137.443 137.524 136.926 136.524 136.821 135.442C136.715 134.359 137.03 133.278 137.701 132.422C138.371 131.565 139.345 130.999 140.421 130.84C141.497 130.682 142.593 130.942 143.482 131.569C144.371 132.195 144.985 133.139 145.197 134.206C145.252 134.481 145.279 134.761 145.279 135.042Z" fill="#3F3D56"/>
<path d="M90.3021 122.661C90.2995 123.748 89.8788 124.793 89.1271 125.578C88.3754 126.364 87.3501 126.831 86.2635 126.883C85.1769 126.934 84.1121 126.566 83.2895 125.854C82.4669 125.143 81.9494 124.143 81.8441 123.061C81.7389 121.979 82.0539 120.897 82.724 120.041C83.3941 119.184 84.368 118.618 85.4442 118.459C86.5203 118.301 87.6164 118.562 88.5055 119.188C89.3946 119.814 90.0087 120.758 90.2208 121.825C90.2754 122.1 90.3026 122.38 90.3021 122.661Z" fill="#3F3D56"/>
<path d="M232.001 175.671C234.353 175.671 236.26 173.765 236.26 171.415C236.26 169.064 234.353 167.158 232.001 167.158C229.649 167.158 227.742 169.064 227.742 171.415C227.742 173.765 229.649 175.671 232.001 175.671Z" fill="#3F3D56"/>
<path d="M165.023 136.976C168.444 136.976 171.217 134.204 171.217 130.785C171.217 127.366 168.444 124.594 165.023 124.594C161.601 124.594 158.828 127.366 158.828 130.785C158.828 134.204 161.601 136.976 165.023 136.976Z" fill="#3F3D56"/>
<path d="M332.54 220.882L0.460971 221.001C0.400435 221.001 0.340491 220.989 0.284563 220.966C0.228635 220.943 0.177821 220.909 0.135015 220.866C0.0922098 220.823 0.0582506 220.773 0.0350844 220.717C0.0119183 220.661 0 220.601 0 220.54C0 220.48 0.0119183 220.42 0.0350844 220.364C0.0582506 220.308 0.0922098 220.257 0.135015 220.214C0.177821 220.171 0.228635 220.137 0.284563 220.114C0.340491 220.091 0.400435 220.079 0.460971 220.079L332.54 219.96C332.662 219.96 332.779 220.009 332.865 220.095C332.952 220.182 333 220.299 333 220.421C333 220.543 332.952 220.66 332.865 220.747C332.779 220.833 332.662 220.882 332.54 220.882Z" fill="#CACACA"/>
</svg>
