<svg width="246" height="221" viewBox="0 0 246 221" fill="none" xmlns="http://www.w3.org/2000/svg">
<g clip-path="url(#clip0_633_14762)">
<path d="M152.844 128.424H62.7369C59.6812 128.42 56.7517 127.209 54.5911 125.056C52.4304 122.903 51.215 119.984 51.2116 116.939V11.485C51.215 8.44007 52.4304 5.52081 54.5911 3.36769C56.7517 1.21457 59.6812 0.00343959 62.7369 0H146.567L164.369 14.1401V116.939C164.366 119.984 163.15 122.903 160.99 125.056C158.829 127.209 155.9 128.42 152.844 128.424Z" fill="#E6E6E6"/>
<path d="M62.7371 3.3064C60.5611 3.30884 58.4749 4.17131 56.9362 5.70459C55.3976 7.23788 54.5321 9.31675 54.5296 11.4851V116.939C54.5321 119.107 55.3976 121.186 56.9362 122.719C58.4749 124.253 60.5611 125.115 62.7371 125.117H152.844C155.02 125.115 157.106 124.253 158.645 122.719C160.184 121.186 161.049 119.107 161.052 116.939V15.7331L145.406 3.3064H62.7371Z" fill="white"/>
<path d="M135.318 33.9694H94.2937C94.0416 33.9694 93.7921 33.9199 93.5592 33.8238C93.3263 33.7277 93.1148 33.5868 92.9365 33.4092C92.7583 33.2316 92.617 33.0208 92.5205 32.7888C92.4241 32.5567 92.3744 32.308 92.3744 32.0569C92.3744 31.8057 92.4241 31.557 92.5205 31.3249C92.617 31.0929 92.7583 30.8821 92.9365 30.7045C93.1148 30.5269 93.3263 30.386 93.5592 30.2899C93.7921 30.1938 94.0416 30.1443 94.2937 30.1443H135.318C135.57 30.1443 135.82 30.1938 136.053 30.2899C136.285 30.386 136.497 30.5269 136.675 30.7045C136.854 30.8821 136.995 31.0929 137.091 31.3249C137.188 31.557 137.237 31.8057 137.237 32.0569C137.237 32.308 137.188 32.5567 137.091 32.7888C136.995 33.0208 136.854 33.2316 136.675 33.4092C136.497 33.5868 136.285 33.7277 136.053 33.8238C135.82 33.9199 135.57 33.9694 135.318 33.9694Z" fill="#CCCCCC"/>
<path d="M143.235 40.4243H94.2937C93.7846 40.4243 93.2965 40.2228 92.9365 39.8641C92.5766 39.5054 92.3744 39.0189 92.3744 38.5117C92.3744 38.0044 92.5766 37.518 92.9365 37.1593C93.2965 36.8006 93.7846 36.5991 94.2937 36.5991H143.235C143.744 36.5991 144.232 36.8006 144.592 37.1593C144.952 37.518 145.154 38.0044 145.154 38.5117C145.154 39.0189 144.952 39.5054 144.592 39.8641C144.232 40.2228 143.744 40.4243 143.235 40.4243Z" fill="#CCCCCC"/>
<path d="M135.318 62.8969H94.2937C93.7846 62.8969 93.2965 62.6954 92.9365 62.3367C92.5766 61.9781 92.3744 61.4916 92.3744 60.9843C92.3744 60.4771 92.5766 59.9906 92.9365 59.632C93.2965 59.2733 93.7846 59.0718 94.2937 59.0718H135.318C135.827 59.0718 136.315 59.2733 136.675 59.632C137.035 59.9906 137.237 60.4771 137.237 60.9843C137.237 61.4916 137.035 61.9781 136.675 62.3367C136.315 62.6954 135.827 62.8969 135.318 62.8969Z" fill="#CCCCCC"/>
<path d="M143.235 69.3517H94.2937C93.7846 69.3517 93.2965 69.1502 92.9365 68.7916C92.5766 68.4329 92.3744 67.9464 92.3744 67.4392C92.3744 66.9319 92.5766 66.4455 92.9365 66.0868C93.2965 65.7281 93.7846 65.5266 94.2937 65.5266H143.235C143.744 65.5266 144.232 65.7281 144.592 66.0868C144.952 66.4455 145.154 66.9319 145.154 67.4392C145.154 67.9464 144.952 68.4329 144.592 68.7916C144.232 69.1502 143.744 69.3517 143.235 69.3517Z" fill="#CCCCCC"/>
<path d="M135.318 91.8246H94.2937C93.7846 91.8246 93.2965 91.6231 92.9365 91.2645C92.5766 90.9058 92.3744 90.4193 92.3744 89.9121C92.3744 89.4048 92.5766 88.9184 92.9365 88.5597C93.2965 88.201 93.7846 87.9995 94.2937 87.9995H135.318C135.827 87.9995 136.315 88.201 136.675 88.5597C137.035 88.9184 137.237 89.4048 137.237 89.9121C137.237 90.4193 137.035 90.9058 136.675 91.2645C136.315 91.6231 135.827 91.8246 135.318 91.8246Z" fill="#CCCCCC"/>
<path d="M143.235 98.2795H94.2937C93.7846 98.2795 93.2965 98.078 92.9365 97.7193C92.5766 97.3606 92.3744 96.8742 92.3744 96.3669C92.3744 95.8597 92.5766 95.3732 92.9365 95.0145C93.2965 94.6558 93.7846 94.4543 94.2937 94.4543H143.235C143.744 94.4543 144.232 94.6558 144.592 95.0145C144.952 95.3732 145.154 95.8597 145.154 96.3669C145.154 96.8742 144.952 97.3606 144.592 97.7193C144.232 98.078 143.744 98.2795 143.235 98.2795Z" fill="#CCCCCC"/>
<path d="M77.2102 42.0441C80.9566 42.0441 83.9937 39.0177 83.9937 35.2843C83.9937 31.5509 80.9566 28.5244 77.2102 28.5244C73.4637 28.5244 70.4266 31.5509 70.4266 35.2843C70.4266 39.0177 73.4637 42.0441 77.2102 42.0441Z" fill="#00D68F"/>
<path d="M76.538 37.8629C76.3854 37.8631 76.2368 37.8139 76.1147 37.7227L76.1072 37.717L74.5129 36.5018C74.364 36.3878 74.2666 36.2195 74.2421 36.034C74.2175 35.8485 74.2679 35.6608 74.3822 35.5123C74.4965 35.3638 74.6652 35.2666 74.8514 35.242C75.0375 35.2174 75.2259 35.2675 75.375 35.3812L76.4076 36.1703L78.8478 32.998C78.9043 32.9245 78.9749 32.8627 79.0554 32.8164C79.1359 32.77 79.2248 32.7399 79.317 32.7278C79.4092 32.7156 79.5029 32.7217 79.5928 32.7456C79.6826 32.7696 79.7668 32.8109 79.8406 32.8673L79.8408 32.8675L79.8257 32.8884L79.8412 32.8675C79.9901 32.9815 80.0876 33.1498 80.1121 33.3353C80.1367 33.5208 80.0864 33.7085 79.9722 33.8571L77.1021 37.5867C77.0357 37.6727 76.9503 37.7422 76.8526 37.7899C76.7549 37.8377 76.6475 37.8624 76.5386 37.862L76.538 37.8629Z" fill="white"/>
<path d="M77.9085 70.9716C81.655 70.9716 84.6921 67.9451 84.6921 64.2118C84.6921 60.4784 81.655 57.4519 77.9085 57.4519C74.162 57.4519 71.1249 60.4784 71.1249 64.2118C71.1249 67.9451 74.162 70.9716 77.9085 70.9716Z" fill="#CCCCCC"/>
<path d="M77.2102 99.8994C80.9566 99.8994 83.9937 96.8729 83.9937 93.1395C83.9937 89.4061 80.9566 86.3796 77.2102 86.3796C73.4637 86.3796 70.4266 89.4061 70.4266 93.1395C70.4266 96.8729 73.4637 99.8994 77.2102 99.8994Z" fill="#CCCCCC"/>
<path d="M164.023 14.5961H150.077C149.059 14.5961 148.083 14.1931 147.363 13.4757C146.643 12.7584 146.239 11.7854 146.239 10.7709V0.507141C146.239 0.462206 146.252 0.418176 146.276 0.380108C146.3 0.34204 146.334 0.311473 146.374 0.291911C146.415 0.272348 146.46 0.264583 146.505 0.269505C146.55 0.274428 146.592 0.29184 146.628 0.319743L164.172 14.1696C164.211 14.2004 164.239 14.2426 164.253 14.2902C164.267 14.3379 164.266 14.3887 164.249 14.4356C164.233 14.4825 164.202 14.5231 164.162 14.5519C164.121 14.5806 164.073 14.5961 164.023 14.5961Z" fill="#E6E6E6"/>
<path d="M69.6228 148.182L16.3109 159.38C14.7702 159.702 13.1644 159.402 11.8457 158.545C10.527 157.688 9.60305 156.346 9.27666 154.811L0.128416 111.561C-0.194515 110.026 0.106864 108.426 0.966433 107.112C1.826 105.798 3.17356 104.877 4.71347 104.552L58.0254 93.3538C59.566 93.032 61.1719 93.3323 62.4906 94.1889C63.8093 95.0454 64.7332 96.3883 65.0596 97.9228L74.2078 141.172C74.5308 142.708 74.2294 144.308 73.3698 145.622C72.5102 146.936 71.1627 147.857 69.6228 148.182Z" fill="white"/>
<path d="M69.6228 148.182L16.3109 159.38C14.7702 159.702 13.1644 159.402 11.8457 158.545C10.527 157.688 9.60305 156.346 9.27666 154.811L0.128416 111.561C-0.194515 110.026 0.106864 108.426 0.966433 107.112C1.826 105.798 3.17356 104.877 4.71347 104.552L58.0254 93.3538C59.566 93.032 61.1719 93.3323 62.4906 94.1889C63.8093 95.0454 64.7332 96.3883 65.0596 97.9228L74.2078 141.172C74.5308 142.708 74.2294 144.308 73.3698 145.622C72.5102 146.936 71.1627 147.857 69.6228 148.182ZM4.85754 105.233C3.4988 105.52 2.30978 106.332 1.55134 107.492C0.792898 108.651 0.526969 110.063 0.811898 111.418L9.96014 154.667C10.2481 156.021 11.0634 157.206 12.2269 157.962C13.3905 158.718 14.8074 158.983 16.1668 158.699L69.4787 147.501C70.8374 147.214 72.0265 146.402 72.7849 145.242C73.5433 144.083 73.8093 142.671 73.5243 141.316L64.3761 98.0664C64.0881 96.7124 63.2729 95.5276 62.1093 94.7718C60.9457 94.016 59.5288 93.751 58.1695 94.0349L4.85754 105.233Z" fill="#3F3D56"/>
<path d="M54.7129 107.614L27.807 113.266C27.5716 113.32 27.3242 113.284 27.1148 113.163C26.9054 113.043 26.7497 112.848 26.6792 112.618C26.6469 112.497 26.6396 112.372 26.6576 112.249C26.6756 112.126 26.7185 112.008 26.7838 111.902C26.8491 111.796 26.9354 111.704 27.0375 111.632C27.1395 111.561 27.2551 111.511 27.3772 111.485L54.7657 105.732C55.8351 106.333 55.4971 107.45 54.7125 107.615L54.7129 107.614Z" fill="#CCCCCC"/>
<path d="M55.7078 112.317L28.8019 117.969C28.5665 118.023 28.3191 117.987 28.1097 117.866C27.9003 117.746 27.7446 117.551 27.6741 117.32C27.6418 117.2 27.6345 117.075 27.6525 116.952C27.6704 116.829 27.7134 116.711 27.7787 116.605C27.844 116.499 27.9303 116.407 28.0324 116.335C28.1344 116.264 28.25 116.214 28.3721 116.188L55.7606 110.435C56.83 111.036 56.492 112.153 55.7074 112.317L55.7078 112.317Z" fill="#CCCCCC"/>
<path d="M23.5517 121.868L15.3403 123.593C15.0721 123.649 14.7926 123.597 14.5631 123.448C14.3335 123.299 14.1727 123.065 14.1159 122.798L12.0734 113.142C12.0172 112.874 12.0696 112.596 12.2192 112.367C12.3689 112.138 12.6035 111.978 12.8715 111.921L21.0829 110.197C21.3511 110.141 21.6305 110.193 21.8601 110.342C22.0896 110.491 22.2504 110.725 22.3073 110.992L24.3498 120.648C24.406 120.915 24.3536 121.194 24.2039 121.423C24.0543 121.652 23.8197 121.812 23.5517 121.868V121.868Z" fill="#CCCCCC"/>
<path d="M57.6661 121.963L16.6029 130.588C16.3674 130.643 16.12 130.606 15.9107 130.486C15.7013 130.365 15.5456 130.17 15.475 129.94C15.4428 129.82 15.4354 129.694 15.4534 129.571C15.4714 129.448 15.5144 129.33 15.5797 129.224C15.645 129.118 15.7313 129.027 15.8333 128.955C15.9353 128.883 16.0509 128.833 16.1731 128.807L57.7192 120.081C58.7886 120.681 58.4506 121.798 57.6661 121.963Z" fill="#CCCCCC"/>
<path d="M58.6612 126.668L17.598 135.293C17.3625 135.347 17.1151 135.31 16.9057 135.19C16.6964 135.07 16.5407 134.875 16.4701 134.644C16.4379 134.524 16.4305 134.399 16.4485 134.276C16.4665 134.153 16.5094 134.034 16.5748 133.928C16.6401 133.822 16.7264 133.731 16.8284 133.659C16.9304 133.588 17.046 133.537 17.1681 133.512L58.7143 124.785C59.7837 125.386 59.4457 126.503 58.6612 126.668Z" fill="#CCCCCC"/>
<path d="M59.6557 131.369L18.5925 139.994C18.3571 140.048 18.1096 140.012 17.9003 139.891C17.6909 139.771 17.5352 139.576 17.4647 139.345C17.4324 139.225 17.425 139.1 17.443 138.977C17.461 138.854 17.504 138.736 17.5693 138.63C17.6346 138.524 17.7209 138.432 17.8229 138.36C17.925 138.289 18.0406 138.239 18.1627 138.213L59.7089 129.486C60.7783 130.087 60.4403 131.204 59.6557 131.369Z" fill="#CCCCCC"/>
<path d="M60.6508 136.073L19.5876 144.698C19.3521 144.752 19.1047 144.716 18.8953 144.595C18.686 144.475 18.5303 144.28 18.4597 144.05C18.4275 143.929 18.4201 143.804 18.4381 143.681C18.4561 143.558 18.4991 143.44 18.5644 143.334C18.6297 143.228 18.716 143.136 18.818 143.065C18.92 142.993 19.0356 142.943 19.1578 142.917L60.7039 134.19C61.7733 134.791 61.4353 135.908 60.6508 136.073Z" fill="#CCCCCC"/>
<path d="M61.6451 140.774L20.5819 149.4C20.3465 149.454 20.0991 149.417 19.8897 149.297C19.6804 149.177 19.5247 148.982 19.4541 148.751C19.4218 148.631 19.4145 148.506 19.4325 148.383C19.4505 148.259 19.4934 148.141 19.5587 148.035C19.6241 147.929 19.7104 147.838 19.8124 147.766C19.9144 147.695 20.03 147.644 20.1521 147.619L61.6983 138.892C62.7677 139.493 62.4297 140.61 61.6451 140.774Z" fill="#CCCCCC"/>
<path d="M68.8937 119.243C68.8004 119.411 68.7206 119.587 68.655 119.768L51.8444 123.925L48.9199 120.911L43.7772 124.714L48.4338 130.553C48.81 131.024 49.3296 131.362 49.9146 131.514C50.4996 131.666 51.1183 131.625 51.678 131.398L69.9192 123.97C70.5188 124.41 71.2385 124.657 71.9827 124.679C72.7268 124.702 73.4601 124.497 74.0851 124.094C74.71 123.691 75.1969 123.108 75.4811 122.422C75.7653 121.736 75.8332 120.981 75.6759 120.256C75.5186 119.53 75.1435 118.87 74.6004 118.363C74.0574 117.855 73.3721 117.525 72.6359 117.415C71.8996 117.305 71.1472 117.421 70.4787 117.747C69.8103 118.074 69.2574 118.596 68.8937 119.243L68.8937 119.243Z" fill="#A0616A"/>
<path d="M11.5129 156.236C12.037 156.075 12.5192 155.801 12.9256 155.434C13.332 155.067 13.6527 154.615 13.8651 154.111C14.0775 153.607 14.1764 153.063 14.1549 152.517C14.1333 151.971 13.9919 151.436 13.7405 150.95L25.3093 118.908L17.2752 117.489L8.4298 149.432C7.6388 149.907 7.0501 150.654 6.77525 151.533C6.5004 152.411 6.5585 153.36 6.93854 154.198C7.31857 155.037 7.99414 155.708 8.83723 156.083C9.68032 156.459 10.6324 156.513 11.5129 156.236Z" fill="#A0616A"/>
<path d="M23.8399 124.596L15.9075 121.562C15.6818 121.476 15.4775 121.342 15.3083 121.17C15.1392 120.998 15.0093 120.791 14.9274 120.565C14.8456 120.338 14.8137 120.096 14.834 119.856C14.8543 119.616 14.9262 119.383 15.045 119.173L19.2063 111.821C19.6561 110.673 20.5444 109.75 21.6765 109.253C22.8085 108.757 24.0918 108.728 25.2452 109.173C26.3986 109.618 27.3279 110.5 27.8293 111.627C28.3307 112.753 28.3634 114.032 27.9201 115.183L26.0846 123.396C26.032 123.631 25.9292 123.852 25.7831 124.044C25.637 124.236 25.4511 124.394 25.2381 124.508C25.025 124.622 24.7899 124.689 24.5486 124.704C24.3073 124.719 24.0656 124.682 23.8399 124.596V124.596Z" fill="#00D68F"/>
<path d="M41.7443 216.394L46.0261 216.394L48.063 199.936L41.7436 199.936L41.7443 216.394Z" fill="#A0616A"/>
<path d="M40.6522 215.001L49.0844 215.001H49.0848C49.7905 215.001 50.4893 215.139 51.1412 215.408C51.7932 215.677 52.3856 216.072 52.8846 216.569C53.3836 217.066 53.7794 217.657 54.0495 218.306C54.3196 218.956 54.4586 219.652 54.4585 220.356V220.53L40.6524 220.53L40.6522 215.001Z" fill="#2F2E41"/>
<path d="M17.6459 216.394L21.9278 216.394L23.9646 199.936L17.6452 199.936L17.6459 216.394Z" fill="#A0616A"/>
<path d="M16.5535 215.001L24.9857 215.001H24.9861C25.6918 215.001 26.3906 215.139 27.0425 215.408C27.6945 215.677 28.2869 216.072 28.7859 216.569C29.2849 217.066 29.6807 217.657 29.9508 218.306C30.2209 218.956 30.3599 219.652 30.3598 220.356V220.53L16.5537 220.53L16.5535 215.001Z" fill="#2F2E41"/>
<path d="M22.1347 209.77H16.7162C16.5035 209.77 16.2931 209.727 16.0976 209.644C15.9021 209.56 15.7256 209.438 15.5789 209.285C15.4321 209.131 15.3181 208.95 15.2438 208.751C15.1694 208.553 15.1363 208.341 15.1464 208.13L17.7201 153.025L17.8823 153.021L44.048 152.341L49.1682 207.477C49.1879 207.684 49.1661 207.892 49.1042 208.09C49.0423 208.289 48.9414 208.473 48.8075 208.632C48.6736 208.791 48.5093 208.922 48.3241 209.017C48.139 209.112 47.9367 209.17 47.729 209.186L41.6428 209.671C41.2605 209.702 40.8802 209.592 40.5736 209.362C40.2669 209.132 40.0551 208.799 39.9779 208.425L32.193 169.175C32.1717 169.056 32.1083 168.948 32.0141 168.871C31.92 168.795 31.8014 168.754 31.6799 168.757H31.6778C31.5559 168.755 31.4371 168.796 31.343 168.873C31.249 168.951 31.1861 169.059 31.1657 169.179L23.6768 208.506C23.6059 208.862 23.4135 209.182 23.1324 209.413C22.8512 209.643 22.4987 209.769 22.1347 209.77Z" fill="#2F2E41"/>
<path d="M32.0604 103.879C36.7979 103.879 40.6384 100.052 40.6384 95.3307C40.6384 90.6098 36.7979 86.7827 32.0604 86.7827C27.3229 86.7827 23.4824 90.6098 23.4824 95.3307C23.4824 100.052 27.3229 103.879 32.0604 103.879Z" fill="#A0616A"/>
<path d="M29.184 159.483C25.0955 159.483 20.8962 158.412 17.4149 155.245C17.2296 155.078 17.0866 154.869 16.9974 154.637C16.9083 154.404 16.8755 154.153 16.9017 153.906C17.2743 150.569 19.0818 133.344 18.0639 121.837C17.8652 119.687 18.1706 117.522 18.9558 115.51C19.7411 113.498 20.9847 111.696 22.5886 110.246C24.1645 108.798 26.0562 107.736 28.1147 107.142C30.1731 106.548 32.342 106.439 34.45 106.823H34.4501C34.5569 106.842 34.6637 106.862 34.7706 106.883C41.6381 108.207 46.4097 114.541 45.8698 121.615C45.082 131.938 44.3757 145.901 45.4847 153.797C45.5306 154.12 45.474 154.449 45.3228 154.739C45.1715 155.028 44.9333 155.263 44.6413 155.411C42.118 156.681 35.7961 159.483 29.184 159.483Z" fill="#00D68F"/>
<path d="M40.3773 125.211C40.176 125.077 40.006 124.902 39.8789 124.697C39.7517 124.492 39.6704 124.263 39.6405 124.024L38.5955 115.674C38.2637 114.487 38.418 113.217 39.0244 112.143C39.6309 111.069 40.64 110.278 41.8306 109.944C43.0212 109.61 44.2961 109.76 45.3758 110.361C46.4554 110.963 47.2518 111.966 47.5902 113.152L51.0325 120.865C51.1307 121.085 51.1802 121.323 51.1775 121.564C51.1749 121.805 51.1201 122.043 51.017 122.26C50.914 122.478 50.765 122.672 50.5802 122.827C50.3954 122.982 50.1792 123.096 49.9463 123.161L41.7608 125.431C41.5279 125.495 41.2837 125.509 41.045 125.471C40.8062 125.433 40.5785 125.344 40.3773 125.211Z" fill="#00D68F"/>
<path d="M29.0658 103.758C28.2539 103.773 27.4471 103.628 26.6919 103.33C26.3596 103.202 26.0147 103.097 25.683 102.97C22.754 101.842 20.8245 98.7336 20.7554 95.6053C20.6863 92.477 22.312 89.4406 24.7261 87.4396C27.1402 85.4386 30.267 84.4113 33.398 84.1737C36.7706 83.9178 40.5682 84.7701 42.4528 87.569C42.9544 88.314 43.3052 89.2179 43.008 90.1174C42.919 90.3889 42.76 90.6323 42.5469 90.8232C41.7053 91.5694 40.8662 91.0084 40.0083 90.9588C38.829 90.8907 37.7698 91.8419 37.3891 92.9562C37.0084 94.0705 37.176 95.2972 37.4834 96.4338C37.7176 97.1177 37.8652 97.8281 37.9228 98.5484C37.9477 98.9096 37.8795 99.2711 37.7248 99.5987C37.5701 99.9263 37.334 100.209 37.0389 100.42C36.302 100.864 35.3343 100.607 34.597 100.164C33.8596 99.721 33.2225 99.1048 32.4261 98.7787C31.6296 98.4526 30.5596 98.5249 30.0961 99.248C29.9487 99.5111 29.849 99.798 29.8015 100.096C29.3859 101.982 29.4814 101.871 29.0658 103.758V103.758Z" fill="#2F2E41"/>
<path d="M66.9404 221H0.582513C0.489886 221 0.401052 220.963 0.335554 220.898C0.270057 220.833 0.233261 220.744 0.233261 220.652C0.233261 220.56 0.270057 220.471 0.335554 220.406C0.401052 220.341 0.489886 220.304 0.582513 220.304H66.9404C67.033 220.304 67.1219 220.341 67.1874 220.406C67.2529 220.471 67.2897 220.56 67.2897 220.652C67.2897 220.744 67.2529 220.833 67.1874 220.898C67.1219 220.963 67.033 221 66.9404 221Z" fill="#CCCCCC"/>
<path d="M236.797 149.176L189.279 175.737C187.905 176.503 186.283 176.695 184.767 176.27C183.252 175.845 181.968 174.839 181.196 173.472L159.497 134.922C158.728 133.553 158.536 131.936 158.962 130.426C159.389 128.916 160.398 127.636 161.77 126.867L209.289 100.306C210.663 99.5406 212.285 99.349 213.8 99.7738C215.316 100.199 216.6 101.205 217.372 102.572L239.071 141.122C239.839 142.491 240.032 144.108 239.605 145.618C239.179 147.128 238.169 148.408 236.797 149.176Z" fill="white"/>
<path d="M236.797 149.176L189.279 175.737C187.905 176.503 186.283 176.695 184.767 176.27C183.252 175.845 181.968 174.839 181.196 173.472L159.497 134.922C158.728 133.553 158.536 131.936 158.962 130.426C159.389 128.916 160.398 127.636 161.77 126.867L209.289 100.306C210.663 99.5406 212.285 99.349 213.8 99.7738C215.316 100.199 216.6 101.205 217.372 102.572L239.071 141.122C239.839 142.491 240.032 144.108 239.605 145.618C239.179 147.128 238.169 148.408 236.797 149.176ZM162.112 127.474C160.902 128.153 160.011 129.282 159.634 130.615C159.258 131.947 159.428 133.374 160.106 134.581L181.805 173.131C182.486 174.337 183.619 175.225 184.956 175.6C186.293 175.975 187.725 175.806 188.937 175.13L236.455 148.569C237.666 147.891 238.557 146.762 238.933 145.429C239.309 144.097 239.14 142.67 238.462 141.462L216.763 102.913C216.082 101.706 214.948 100.818 213.611 100.444C212.274 100.069 210.843 100.238 209.631 100.914L162.112 127.474Z" fill="#3F3D56"/>
<path d="M210.404 114.902L186.422 128.307C186.214 128.429 185.967 128.468 185.731 128.415C185.495 128.363 185.288 128.223 185.151 128.024C185.085 127.919 185.04 127.802 185.02 127.679C185.001 127.556 185.006 127.43 185.037 127.31C185.067 127.189 185.122 127.076 185.198 126.977C185.274 126.879 185.369 126.796 185.478 126.735L209.89 113.09C211.091 113.345 211.103 114.511 210.404 114.902L210.404 114.902Z" fill="#CCCCCC"/>
<path d="M212.764 119.094L188.782 132.499C188.573 132.621 188.326 132.659 188.09 132.607C187.854 132.554 187.647 132.415 187.511 132.216C187.444 132.111 187.399 131.993 187.38 131.87C187.36 131.748 187.366 131.622 187.396 131.501C187.427 131.381 187.482 131.268 187.557 131.169C187.633 131.07 187.729 130.988 187.837 130.927L212.25 117.282C213.45 117.536 213.463 118.703 212.763 119.094L212.764 119.094Z" fill="#CCCCCC"/>
<path d="M184.941 137.783L177.622 141.874C177.383 142.008 177.1 142.041 176.837 141.967C176.573 141.893 176.349 141.718 176.215 141.48L171.37 132.873C171.236 132.635 171.203 132.354 171.277 132.091C171.351 131.828 171.527 131.605 171.766 131.471L179.085 127.38C179.324 127.247 179.607 127.214 179.87 127.288C180.134 127.361 180.358 127.537 180.492 127.775L185.337 136.381C185.47 136.62 185.504 136.901 185.43 137.164C185.356 137.427 185.18 137.65 184.941 137.783L184.941 137.783Z" fill="#CCCCCC"/>
<path d="M217.525 127.716L180.924 148.174C180.716 148.296 180.469 148.335 180.233 148.282C179.997 148.23 179.79 148.09 179.653 147.891C179.587 147.786 179.542 147.669 179.522 147.546C179.502 147.423 179.508 147.298 179.539 147.177C179.569 147.056 179.624 146.943 179.7 146.844C179.776 146.746 179.871 146.663 179.98 146.603L217.011 125.904C218.212 126.158 218.224 127.325 217.525 127.716Z" fill="#CCCCCC"/>
<path d="M219.885 131.909L183.284 152.367C183.076 152.489 182.829 152.528 182.593 152.475C182.357 152.423 182.15 152.283 182.014 152.084C181.947 151.979 181.902 151.862 181.882 151.739C181.863 151.616 181.868 151.491 181.899 151.37C181.929 151.249 181.984 151.136 182.06 151.038C182.136 150.939 182.231 150.857 182.34 150.796L219.371 130.097C220.572 130.351 220.584 131.518 219.885 131.909V131.909Z" fill="#CCCCCC"/>
<path d="M222.244 136.099L185.643 156.557C185.435 156.68 185.188 156.718 184.952 156.666C184.716 156.613 184.509 156.473 184.373 156.274C184.306 156.169 184.261 156.052 184.241 155.929C184.222 155.806 184.227 155.681 184.258 155.56C184.288 155.44 184.343 155.327 184.419 155.228C184.495 155.129 184.59 155.047 184.699 154.986L221.73 134.287C222.931 134.542 222.943 135.708 222.244 136.099Z" fill="#CCCCCC"/>
<path d="M224.604 140.292L188.003 160.75C187.795 160.872 187.548 160.911 187.312 160.859C187.076 160.806 186.869 160.666 186.732 160.467C186.666 160.362 186.621 160.245 186.601 160.122C186.582 159.999 186.587 159.874 186.618 159.753C186.648 159.632 186.703 159.519 186.779 159.421C186.855 159.322 186.95 159.24 187.059 159.179L224.09 138.48C225.291 138.734 225.303 139.901 224.604 140.292H224.604Z" fill="#CCCCCC"/>
<path d="M226.963 144.483L190.362 164.941C190.154 165.063 189.907 165.102 189.671 165.049C189.435 164.997 189.228 164.857 189.091 164.658C189.025 164.553 188.98 164.436 188.96 164.313C188.94 164.19 188.946 164.065 188.977 163.944C189.007 163.823 189.062 163.71 189.138 163.612C189.214 163.513 189.309 163.43 189.418 163.37L226.449 142.671C227.65 142.925 227.662 144.092 226.963 144.483V144.483Z" fill="#CCCCCC"/>
<path d="M220.578 160.187C220.777 159.749 220.877 159.273 220.872 158.792C220.867 158.311 220.755 157.837 220.546 157.403C220.337 156.97 220.035 156.587 219.662 156.282C219.288 155.978 218.852 155.758 218.384 155.64L217.389 143.99L212.602 147.753L214.281 158.239C214.133 159.035 214.284 159.858 214.704 160.551C215.124 161.244 215.785 161.76 216.561 162C217.337 162.24 218.175 162.188 218.915 161.854C219.655 161.52 220.247 160.927 220.578 160.187Z" fill="#FFB8B8"/>
<path d="M217.479 154.42L213.504 154.892C213.302 154.916 213.097 154.898 212.902 154.84C212.707 154.781 212.527 154.683 212.372 154.552C212.217 154.421 212.091 154.259 212.001 154.077C211.912 153.895 211.861 153.696 211.853 153.494L211.273 140.129L203.737 119.613C203.435 118.977 203.297 118.275 203.336 117.572C203.375 116.869 203.59 116.187 203.961 115.588C204.146 115.298 204.357 115.026 204.592 114.776C205.056 114.278 205.634 113.899 206.276 113.672C206.918 113.445 207.606 113.376 208.281 113.47C208.977 113.563 209.64 113.819 210.216 114.218C210.792 114.617 211.264 115.147 211.593 115.764L216.508 126.026C218.563 130.318 219.534 135.047 219.335 139.799L218.781 153.02C218.766 153.366 218.63 153.695 218.395 153.951C218.161 154.207 217.843 154.372 217.499 154.417L217.479 154.42Z" fill="#00D68F"/>
<path d="M231.598 212.182L227.912 213.794L219.918 200.394L225.358 198.015L231.598 212.182Z" fill="#FFB8B8"/>
<path d="M234.107 215.332L222.222 220.53L222.156 220.38C221.889 219.775 221.745 219.123 221.731 218.462C221.717 217.801 221.834 217.144 222.075 216.528C222.316 215.912 222.676 215.349 223.135 214.872C223.594 214.395 224.143 214.013 224.751 213.747L224.751 213.747L232.01 210.572L234.107 215.332Z" fill="#2F2E41"/>
<path d="M182.113 216.642H178.088L176.173 201.169L182.114 201.17L182.113 216.642Z" fill="#FFB8B8"/>
<path d="M183.14 220.53L170.16 220.529V220.366C170.16 219.705 170.291 219.05 170.544 218.439C170.798 217.828 171.171 217.274 171.64 216.806C172.109 216.339 172.666 215.968 173.279 215.715C173.892 215.462 174.549 215.332 175.212 215.332H175.212L183.14 215.332L183.14 220.53Z" fill="#2F2E41"/>
<path d="M221.304 211.352L198.88 161.485C198.84 161.392 198.771 161.313 198.684 161.26C198.596 161.207 198.495 161.183 198.393 161.19C198.291 161.197 198.194 161.236 198.115 161.3C198.036 161.365 197.979 161.452 197.952 161.551L184.29 209.716C184.199 210.053 183.991 210.347 183.703 210.545C183.415 210.743 183.065 210.832 182.717 210.795L175.255 210.052C174.87 210.011 174.517 209.823 174.269 209.528C174.021 209.232 173.899 208.851 173.928 208.467C176.302 179.05 180.043 151.287 191.252 133.112L191.311 133.015L208.265 136.328L230.9 208.152C231.011 208.522 230.973 208.921 230.794 209.264C230.614 209.606 230.307 209.865 229.939 209.984L223.113 212.171C222.764 212.284 222.384 212.263 222.049 212.111C221.715 211.96 221.449 211.689 221.304 211.352Z" fill="#2F2E41"/>
<path d="M199.506 107.567C203.96 107.567 207.57 103.969 207.57 99.5311C207.57 95.0928 203.96 91.4949 199.506 91.4949C195.052 91.4949 191.441 95.0928 191.441 99.5311C191.441 103.969 195.052 107.567 199.506 107.567Z" fill="#FFB8B8"/>
<path d="M190.21 134.503L190.107 134.482L190.083 134.38C188.996 129.809 188.97 124.82 190.006 119.553C190.531 116.86 191.993 114.439 194.133 112.715C196.274 110.992 198.956 110.076 201.708 110.13C204.694 110.19 207.544 111.385 209.674 113.47C211.805 115.555 213.056 118.373 213.17 121.347C213.516 130.407 209.8 138.261 209.763 138.34L209.707 138.455L190.21 134.503Z" fill="#00D68F"/>
<path d="M168.591 149.792C169.069 149.721 169.525 149.548 169.928 149.283C170.33 149.018 170.67 148.668 170.923 148.258C171.175 147.848 171.334 147.388 171.389 146.91C171.444 146.432 171.392 145.948 171.239 145.492L180.528 138.348L174.761 136.376L166.824 143.462C166.072 143.77 165.46 144.341 165.103 145.069C164.745 145.796 164.668 146.629 164.886 147.409C165.104 148.189 165.602 148.863 166.284 149.302C166.967 149.741 167.788 149.915 168.591 149.792V149.792Z" fill="#FFB8B8"/>
<path d="M173.664 144.404C173.362 144.582 173.006 144.647 172.66 144.586C172.314 144.525 172.001 144.343 171.778 144.073L169.226 140.998C169.097 140.842 169.001 140.661 168.945 140.466C168.888 140.271 168.873 140.067 168.9 139.866C168.927 139.665 168.995 139.472 169.1 139.298C169.206 139.125 169.346 138.975 169.512 138.858L180.472 131.134L193.697 113.71C194.07 113.112 194.588 112.616 195.202 112.268C195.816 111.92 196.508 111.731 197.215 111.717C197.559 111.715 197.902 111.745 198.241 111.806C198.912 111.925 199.545 112.204 200.084 112.619C200.624 113.034 201.055 113.573 201.34 114.189C201.639 114.822 201.782 115.516 201.758 116.215C201.733 116.913 201.542 117.596 201.199 118.206L191.407 134.009L191.386 134.043L173.664 144.404Z" fill="#00D68F"/>
<path d="M200.948 99.0326C200.354 98.0583 199.042 97.783 197.903 97.8942C196.765 98.0054 195.657 98.4042 194.513 98.3954C191.336 98.3708 188.883 94.5121 190.219 91.6395C191.315 89.2836 194.051 88.2491 196.525 87.4371C201.715 85.7348 207.675 84.0991 212.384 86.8594C213.885 87.765 215.116 89.0534 215.95 90.5916C216.783 92.1297 217.19 93.8618 217.127 95.6089C217.021 97.7812 216.186 100.013 216.893 102.07C217.707 104.445 220.29 105.718 222.731 106.335C227.009 107.415 231.52 107.241 235.825 108.209C240.131 109.178 244.542 111.751 245.703 115.994C246.465 118.781 245.67 121.782 244.353 124.356C243.009 126.981 241.141 129.306 238.864 131.187C236.587 133.068 233.949 134.467 231.11 135.296C228.272 136.126 225.294 136.369 222.358 136.012C219.422 135.654 216.59 134.703 214.036 133.217C208.831 130.188 205.073 125.07 202.833 119.494C201.563 116.242 200.669 112.855 200.168 109.401C199.666 106.168 200.092 102.9 201 99.756C201.043 99.6386 201.061 99.5134 201.052 99.3887C201.043 99.2641 201.007 99.1427 200.948 99.0326Z" fill="#2F2E41"/>
<path d="M230.041 221H163.683C163.591 221 163.502 220.963 163.436 220.898C163.371 220.833 163.334 220.744 163.334 220.652C163.334 220.56 163.371 220.471 163.436 220.406C163.502 220.341 163.591 220.304 163.683 220.304H230.041C230.134 220.304 230.223 220.341 230.288 220.406C230.354 220.471 230.39 220.56 230.39 220.652C230.39 220.744 230.354 220.833 230.288 220.898C230.223 220.963 230.134 221 230.041 221Z" fill="#CCCCCC"/>
</g>
<defs>
<clipPath id="clip0_633_14762">
<rect width="246" height="221" fill="white"/>
</clipPath>
</defs>
</svg>
